<svg xmlns="http://www.w3.org/2000/svg" viewBox="0 0 32 32" width="32" height="32">
  <defs>
    <linearGradient id="bgGradient" x1="0%" y1="0%" x2="100%" y2="100%">
      <stop offset="0%" style="stop-color:#3B82F6;stop-opacity:1" />
      <stop offset="100%" style="stop-color:#8B5CF6;stop-opacity:1" />
    </linearGradient>
    <linearGradient id="sparkleGradient" x1="0%" y1="0%" x2="100%" y2="100%">
      <stop offset="0%" style="stop-color:#FBBF24;stop-opacity:1" />
      <stop offset="100%" style="stop-color:#F59E0B;stop-opacity:1" />
    </linearGradient>
  </defs>
  
  <!-- Background circle -->
  <circle cx="16" cy="16" r="15" fill="url(#bgGradient)" stroke="#ffffff" stroke-width="1"/>
  
  <!-- AI Bot head -->
  <rect x="10" y="9" width="12" height="10" rx="3" fill="#ffffff" opacity="0.9"/>
  
  <!-- Eyes -->
  <circle cx="13" cy="13" r="1.5" fill="#3B82F6"/>
  <circle cx="19" cy="13" r="1.5" fill="#3B82F6"/>
  
  <!-- Mouth -->
  <path d="M12 16 Q16 18 20 16" stroke="#3B82F6" stroke-width="1.5" fill="none" stroke-linecap="round"/>
  
  <!-- Chat bubble -->
  <ellipse cx="24" cy="12" rx="4" ry="3" fill="#ffffff" opacity="0.8"/>
  <path d="M21 13 L20 15 L22 14 Z" fill="#ffffff" opacity="0.8"/>
  
  <!-- Sparkle/star in chat bubble -->
  <g transform="translate(24,12) scale(0.8)">
    <path d="M0,-2 L0.5,-0.5 L2,0 L0.5,0.5 L0,2 L-0.5,0.5 L-2,0 L-0.5,-0.5 Z" fill="url(#sparkleGradient)"/>
  </g>
  
  <!-- Small decorative dots -->
  <circle cx="6" cy="8" r="1" fill="#ffffff" opacity="0.6"/>
  <circle cx="26" cy="24" r="1" fill="#ffffff" opacity="0.6"/>
  
</svg>